<svg width="203" height="203" viewBox="0 0 203 203" fill="#e4d6c6" xmlns="http://www.w3.org/2000/svg">
<path d="M59.01 50.58C61.2457 50.58 63.3899 49.6918 64.9709 48.1109C66.5518 46.5299 67.44 44.3857 67.44 42.15C67.44 39.9142 66.5518 37.77 64.9709 36.1891C63.3899 34.6081 61.2457 33.72 59.01 33.72H42.15C39.9142 33.72 37.77 34.6081 36.1891 36.1891C34.6081 37.77 33.72 39.9142 33.72 42.15V160.17C33.72 162.406 34.6081 164.55 36.1891 166.131C37.77 167.712 39.9142 168.6 42.15 168.6H59.01C61.2457 168.6 63.3899 167.712 64.9709 166.131C66.5518 164.55 67.44 162.406 67.44 160.17C67.44 157.934 66.5518 155.79 64.9709 154.209C63.3899 152.628 61.2457 151.74 59.01 151.74H50.58V50.58H59.01Z"/>
<path d="M175.513 96.2702L151.74 62.5502C150.451 60.7328 148.494 59.4998 146.299 59.1206C144.103 58.7415 141.846 59.2471 140.022 60.527C139.111 61.1659 138.334 61.979 137.739 62.9195C137.143 63.86 136.739 64.9091 136.551 66.0064C136.363 67.1037 136.394 68.2273 136.643 69.3125C136.891 70.3977 137.352 71.4229 137.999 72.329L152.499 92.7296H151.74H84.3C82.0642 92.7296 79.92 93.6178 78.3391 95.1987C76.7582 96.7796 75.87 98.9238 75.87 101.16C75.87 103.395 76.7582 105.54 78.3391 107.121C79.92 108.701 82.0642 109.59 84.3 109.59H151.74L136.566 129.822C135.902 130.707 135.418 131.715 135.144 132.787C134.869 133.86 134.808 134.976 134.965 136.072C135.121 137.168 135.492 138.222 136.056 139.175C136.62 140.127 137.366 140.959 138.252 141.624C139.711 142.718 141.486 143.31 143.31 143.31C144.619 143.31 145.909 143.005 147.08 142.42C148.251 141.834 149.269 140.985 150.054 139.938L175.344 106.218C176.424 104.792 177.022 103.06 177.052 101.271C177.082 99.4833 176.543 97.7318 175.513 96.2702Z"/>
</svg>
