<svg width="102" height="102" viewBox="0 0 102 102" fill="#e4d6c6" xmlns="http://www.w3.org/2000/svg">
<path d="M83.2041 30.8962L64.4895 9.82115C64.0954 9.38451 63.6143 9.03518 63.0771 8.79562C62.5399 8.55607 61.9586 8.43159 61.3704 8.4302H27.6504C26.2499 8.4135 24.8599 8.67282 23.5597 9.19335C22.2595 9.71389 21.0746 10.4854 20.0726 11.464C19.0706 12.4425 18.2711 13.6088 17.7199 14.8963C17.1687 16.1838 16.8765 17.5673 16.86 18.9677V82.1927C16.8765 83.5931 17.1687 84.9766 17.7199 86.2641C18.2711 87.5516 19.0706 88.7179 20.0726 89.6964C21.0746 90.675 22.2595 91.4465 23.5597 91.967C24.8599 92.4876 26.2499 92.7469 27.6504 92.7302H73.5096C74.91 92.7469 76.3 92.4876 77.6002 91.967C78.9005 91.4465 80.0854 90.675 81.0874 89.6964C82.0894 88.7179 82.8888 87.5516 83.4401 86.2641C83.9913 84.9766 84.2835 83.5931 84.3 82.1927V33.7202C84.2973 32.6756 83.9067 31.6692 83.2041 30.8962ZM59.01 63.2252H54.795V67.4402C54.795 68.5581 54.3509 69.6302 53.5604 70.4207C52.77 71.2111 51.6979 71.6552 50.58 71.6552C49.4621 71.6552 48.39 71.2111 47.5995 70.4207C46.8091 69.6302 46.365 68.5581 46.365 67.4402V63.2252H42.15C41.0321 63.2252 39.96 62.7811 39.1695 61.9907C38.3791 61.2002 37.935 60.1281 37.935 59.0102C37.935 57.8923 38.3791 56.8202 39.1695 56.0298C39.96 55.2393 41.0321 54.7952 42.15 54.7952H46.365V50.5802C46.365 49.4623 46.8091 48.3902 47.5995 47.5998C48.39 46.8093 49.4621 46.3652 50.58 46.3652C51.6979 46.3652 52.77 46.8093 53.5604 47.5998C54.3509 48.3902 54.795 49.4623 54.795 50.5802V54.7952H59.01C60.1279 54.7952 61.2 55.2393 61.9904 56.0298C62.7809 56.8202 63.225 57.8923 63.225 59.0102C63.225 60.1281 62.7809 61.2002 61.9904 61.9907C61.2 62.7811 60.1279 63.2252 59.01 63.2252ZM62.0026 33.7202C61.1337 33.6346 60.3331 33.2112 59.7734 32.5411C59.2136 31.8709 58.9395 31.0078 59.01 30.1375V16.8602L74.7741 33.7202H62.0026Z"/>
</svg>
