<svg width="102" height="102" viewBox="0 0 102 102" fill="#e4d6c6" xmlns="http://www.w3.org/2000/svg">
<path d="M37.935 46.365C41.2695 46.365 44.5293 45.3762 47.3019 43.5236C50.0745 41.671 52.2355 39.0378 53.5116 35.9571C54.7877 32.8763 55.1215 29.4863 54.471 26.2158C53.8204 22.9453 52.2147 19.9411 49.8568 17.5832C47.4989 15.2253 44.4947 13.6195 41.2242 12.969C37.9537 12.3184 34.5637 12.6523 31.4829 13.9284C28.4021 15.2045 25.769 17.3655 23.9164 20.1381C22.0638 22.9107 21.075 26.1704 21.075 29.505C21.075 33.9766 22.8513 38.265 26.0131 41.4268C29.175 44.5887 33.4634 46.365 37.935 46.365Z"/>
<path d="M71.655 54.795C74.156 54.795 76.6007 54.0534 78.6802 52.6639C80.7597 51.2745 82.3804 49.2996 83.3375 46.989C84.2945 44.6785 84.545 42.136 84.057 39.6831C83.5691 37.2302 82.3648 34.9771 80.5964 33.2086C78.8279 31.4402 76.5748 30.2359 74.1219 29.748C71.669 29.2601 69.1265 29.5105 66.816 30.4676C64.5054 31.4246 62.5305 33.0454 61.1411 35.1248C59.7516 37.2043 59.01 39.6491 59.01 42.15C59.01 45.5037 60.3422 48.72 62.7136 51.0914C65.085 53.4628 68.3013 54.795 71.655 54.795Z"/>
<path d="M88.5151 84.3002C89.6329 84.3002 90.705 83.8561 91.4955 83.0656C92.286 82.2752 92.7301 81.2031 92.7301 80.0852C92.7267 76.1458 91.6193 72.2863 89.5334 68.9444C87.4476 65.6026 84.4669 62.9123 80.9295 61.1787C77.3921 59.4451 73.4396 58.7376 69.5205 59.1366C65.6014 59.5356 61.8726 61.025 58.7572 63.4359C54.6286 59.3236 49.3748 56.5258 43.6583 55.3955C37.9418 54.2652 32.0185 54.8529 26.6356 57.0845C21.2526 59.3161 16.651 63.0917 13.4111 67.9352C10.1711 72.7786 8.43794 78.473 8.43005 84.3002C8.43005 85.4181 8.87413 86.4902 9.6646 87.2806C10.4551 88.0711 11.5272 88.5152 12.6451 88.5152H63.2251C64.3429 88.5152 65.415 88.0711 66.2055 87.2806C66.996 86.4902 67.4401 85.4181 67.4401 84.3002"/>
</svg>
